# AST/ASF file generated using VICON BodyLanguage
# -----------------------------------------------
:version 1.10
:name VICON
:units
  mass 1.0
  length 0.1
  angle deg
:documentation
   .ast/.asf automatically generated from VICON data using
   VICON BodyBuilder and BodyLanguage model FULLBODY5.MOD
:root
   order TX TY TZ RZ RY RX
   axis XYZ
   position 0 0 0  
   orientation 0 -0 0 
:bonedata
  begin
     id 1 
     name lhipjoint
     direction 0.969109 -0.218487 0.11442 
     length 0.544217 
     axis 0 -0 0  XYZ
  end
  begin
     id 2 
     name lfemur
     direction 0.173648 -0.984808 0  
     length 1.81499  
     axis 0 -0 10  XYZ
    dof rx ry rz
    limits (-180.0 180.0)
           (-180.0 180.0)
           (-180.0 180.0)
  end
  begin
     id 3 
     name ltibia
     direction 0.173515 -0.984831 0   
     length 1.55296   
     axis 0 -0 10   XYZ
    dof rx ry rz
    limits (-180.0 180.0)
           (-180.0 180.0)
           (-180.0 180.0)
  end
  begin
     id 4 
     name lfoot
     direction 7.36097e-012 -0.333012 0.942922   
     length 0.509062   
     axis -90 -1.73656e-015 10   XYZ
    dof rx ry rz
    limits (-180.0 180.0)
           (-180.0 180.0)
           (-180.0 180.0)
  end
  begin
     id 5 
     name ltoes
     direction 7.7847e-012 -4.42403e-011 1   
     length 0.249732   
     axis -90 -1.73656e-015 10   XYZ
    dof rx ry rz
    limits (-180.0 180.0)
           (-180.0 180.0)
           (-180.0 180.0)
  end
  begin
     id 6 
     name rhipjoint
     direction -0.966745 -0.226554 0.118645   
     length 0.524838  
     axis 0 -0 0  XYZ 
  end
  begin
     id 7 
     name rfemur
     direction -0.173648 -0.984808 0   
     length 1.84625   
     axis 0 -0 -10   XYZ
    dof rx ry rz
    limits (-180.0 180.0)
           (-180.0 180.0)
           (-180.0 180.0)
  end
  begin
     id 8 
     name rtibia
     direction -0.173714 -0.984796 0   
     length 1.577   
     axis 0 -0 -10   XYZ
    dof rx ry rz
    limits (-180.0 180.0)
           (-180.0 180.0)
           (-180.0 180.0)
 end
 begin
     id 9 
     name rfoot
     direction -0.0183819 -0.0406144 0.999006   
     length 0.490111  
     axis -90 1.73656e-015 -10   XYZ
    dof rx ry rz
    limits (-180.0 180.0)
           (-180.0 180.0)
           (-180.0 180.0)
  end
  begin
     id 10 
     name rtoes
     direction -7.79087e-012 -4.42375e-011 1   
     length 0.245053   
     axis -90 1.73656e-015 -10   XYZ
    dof rx ry rz
    limits (-180.0 180.0)
           (-180.0 180.0)
           (-180.0 180.0)
  end
  begin
     id 11 
     name lowerback
     direction -0.0664844 0.980601 0.184393   
     length 0.458979   
     axis 0 -0 0   XYZ
    dof rx ry rz
    limits (-180.0 180.0)
           (-180.0 180.0)
           (-180.0 180.0)
  end
  begin
     id 12 
     name upperback
     direction 0.0135995 0.999573 0.02588   
     length 0.463983   
     axis 0 -0 0   XYZ
    dof rx ry rz
    limits (-180.0 180.0)
           (-180.0 180.0)
           (-180.0 180.0)
  end
  begin
     id 13 
     name thorax
     direction 0.0468402 0.997311 -0.0563691   
     length 0.482746   
     axis 0 -0 0   XYZ
    dof rx ry rz
    limits (-180.0 180.0)
           (-180.0 180.0)
           (-180.0 180.0)
  end
  begin
     id 14 
     name lowerneck
     direction -0.00174311 0.988586 -0.150647   
     length 0.364383   
     axis 0 -0 0   XYZ
    dof rx ry rz
    limits (-180.0 180.0)
           (-180.0 180.0)
           (-180.0 180.0)
  end
  begin
     id 15 
     name upperneck
     direction -0.02653 0.999379 -0.0231908   
     length 0.361006   
     axis 0 -0 0   XYZ
    dof rx ry rz
    limits (-180.0 180.0)
           (-180.0 180.0)
           (-180.0 180.0)
  end
  begin
     id 16
     name head
     direction -0.00819207 0.999941 0.00714285  
     length 0.378714  
     axis 0 -0 0   XYZ
    dof rx ry rz
    limits (-180.0 180.0)
           (-180.0 180.0)
           (-180.0 180.0)
  end
  begin
     id 17 
     name lshoulderjoint
     direction 0.981627 -0.190809 0  
     length 0.612969  
     axis 0 -0 -11   XYZ
    dof rx ry rz
    limits (-180.0 180.0)
           (-180.0 180.0)
           (-180.0 180.0)
  end
  begin
     id 18 
     name lhumerus
     direction 0.48481 -0.87462 -9.72962e-027   
     length 1.19637   
     axis -180 5.14477e-009 -151   XYZ
    dof rx ry rz
    limits (-180.0 180.0)
           (-180.0 180.0)
           (-180.0 180.0)
  end
  begin
     id 19
     name lradius
     direction 0.48481 -0.87462 -2.35761e-026   
     length 0.637735   
     axis -180 5.14477e-009 -151   XYZ
    dof rx ry rz
    limits (-180.0 180.0)
           (-180.0 180.0)
           (-180.0 180.0)
  end
  begin
     id 20
     name lwrist
     direction 0.48481 -0.87462 -5.51856e-026   
     length 0.318868   
     axis -180 5.14477e-009 -151   XYZ
    dof rx ry rz
    limits (-180.0 180.0)
           (-180.0 180.0)
           (-180.0 180.0)
  end
  begin
     id 21 
     name lhand
     direction 0.477747 -0.861928 -0.169816   
     length 0.29526   
     axis -180 5.14477e-009 -151   XYZ
    dof rx ry rz
    limits (-180.0 180.0)
           (-180.0 180.0)
           (-180.0 180.0)
  end
  begin
     id 22 
     name rshoulderjoint
     direction -0.981627 -0.190809 0   
     length 0.572347  
     axis 0 -0 11   XYZ 
    dof rx ry rz
    limits (-180.0 180.0)
           (-180.0 180.0)
           (-180.0 180.0)
  end
  begin
     id 23 
     name rhumerus
     direction -0.48481 -0.87462 1.64836e-026  
     length 1.28846   
     axis 180 5.14477e-009 151   XYZ
    dof rx ry rz
    limits (-180.0 180.0)
           (-180.0 180.0)
           (-180.0 180.0)
  end
  begin
     id 24 
     name rradius
     direction -0.48481 -0.87462 2.86827e-026   
     length 0.62107   
     axis 180 5.14477e-009 151   XYZ
    dof rx ry rz
    limits (-180.0 180.0)
           (-180.0 180.0)
           (-180.0 180.0)
  end
  begin
     id 25 
     name rwrist
     direction -0.48481 -0.87462 5.20942e-026   
     length 0.310535   
     axis 180 5.14477e-009 151   XYZ
    dof rx ry rz
    limits (-180.0 180.0)
           (-180.0 180.0)
           (-180.0 180.0)
  end
  begin
     id 26
     name rhand
     direction -0.477664 -0.861515 -0.172133   
     length 0.291321   
     axis 180 5.14477e-009 151   XYZ
    dof rx ry rz
    limits (-180.0 180.0)
           (-180.0 180.0)
           (-180.0 180.0)
  end
:hierarchy
  begin
    root lhipjoint rhipjoint lowerback 
    lhipjoint lfemur
    lfemur ltibia
    ltibia lfoot
    lfoot ltoes
    rhipjoint rfemur
    rfemur rtibia
    rtibia rfoot
    rfoot rtoes
    lowerback upperback
    upperback thorax
    thorax lowerneck lshoulderjoint rshoulderjoint
    lowerneck upperneck
    upperneck head
    lshoulderjoint lhumerus
    lhumerus lradius
    lradius lwrist
    lwrist lhand
    rshoulderjoint rhumerus
    rhumerus rradius
    rradius rwrist
    rwrist rhand
  end

:FULLY-SPECIFIED
:DEGREES
1553
root -10.5325 3.82918 -0.191832 264.859 73.391 95.057
lowerback -22.9868 -1.05522 -6.09287
upperback -6.35133 0.422796 1.09734
thorax 5.7818 0.389606 4.8219
lowerneck 14.7695 -3.04492 1.20932
upperneck 6.1286 -3.46256 -2.07145
head -0.582501 -1.51046 -0.685451
rshoulderjoint -2.4255 7.38787 -29.2328
rhumerus 345.887 -9.50164 -411.378
rradius 24.6082 -8.15017e-015 -8.74653e-015
rwrist -6.70432e-014 4.96463 3.19253e-015
rhand 4.59351 -4.24772 32.9877
lshoulderjoint -1.8966 -5.43103 30.2833
lhumerus 355.872 11.1566 416.498
lradius 17.5547 -8.42847e-014 8.78628e-014
lwrist -1.93507e-014 -9.53553 2.20114e-013
lhand 8.80691 7.87889 -34.102
rfemur -20.0845 33.0272 1.88591
rtibia 7.75947 6.36111e-015 4.77083e-015
rfoot -186.436 -68.2218 195.538
rtoes -5.08889e-014 4.92986e-014 -4.45278e-014
lfemur -20.7465 -18.9058 -8.5225
ltibia 27.1304 -2.22639e-014 -3.18055e-015
lfoot -16.4805 7.71958 16.8943
ltoes -4.6118e-014 1.64246e-014 -3.45885e-014
1554
root -10.5337 3.82891 -0.197579 267.545 73.4945 92.4238
lowerback -22.942 -1.01097 -5.91101
upperback -6.34751 0.426631 1.13891
thorax 5.76455 0.390206 4.76272
lowerneck 14.7473 -2.9613 1.23273
upperneck 6.10719 -3.35284 -2.18303
head -0.587372 -1.45525 -0.730037
rshoulderjoint -2.43287 7.41517 -29.222
rhumerus 346.1 -9.67561 -411.37
rradius 24.5789 1.0138e-014 1.44715e-013
rwrist -9.21865e-013 4.37384 3.25364e-013
rhand 4.68156 -3.58549 32.9155
lshoulderjoint -1.89334 -5.42764 30.2637
lhumerus 355.843 10.8525 416.587
lradius 17.5963 4.45278e-014 -6.52014e-014
lwrist -9.57605e-013 -9.44457 -3.05499e-013
lhand 8.66986 7.84195 -34.1628
rfemur -20.1923 33.3557 1.64529
rtibia 7.67466 3.49861e-014 -1.63003e-014
rfoot -186.686 -68.2057 196.127
rtoes -1.145e-013 6.36111e-014 -1.08139e-013
lfemur -20.4477 -18.5936 -8.75541
ltibia 26.8669 -3.49861e-014 2.38542e-015
lfoot -16.403 8.00719 17.5043
ltoes -1.47101e-013 5.07149e-014 4.73108e-014
1555
root -10.535 3.8287 -0.203468 270.203 73.5403 89.8198
lowerback -22.9168 -0.970337 -5.73757
upperback -6.34966 0.429863 1.18308
thorax 5.75073 0.390973 4.7114
lowerneck 14.7763 -2.89243 1.23199
upperneck 6.05196 -3.26657 -2.25347
head -0.610467 -1.41252 -0.755864
rshoulderjoint -2.43119 7.41924 -29.201
rhumerus 346.204 -9.64014 -411.376
rradius 24.5352 -1.18028e-015 -2.38542e-014
rwrist 5.19949e-013 4.37942 -8.21391e-014
rhand 4.50439 -3.63036 32.9397
lshoulderjoint -1.88292 -5.40636 30.235
lhumerus 355.846 10.5092 416.674
lradius 17.6027 3.97569e-014 1.51076e-014
lwrist 5.67287e-013 -9.33275 1.07172e-013
lhand 8.57357 7.80373 -34.1705
rfemur -20.3563 33.6619 1.38378
rtibia 7.6424 -3.49861e-014 -1.63003e-014
rfoot -186.848 -68.189 196.632
rtoes 1.17681e-013 -2.22639e-014 -3.18055e-014
lfemur -20.1531 -18.1738 -9.01554
ltibia 26.5238 2.22639e-014 1.35174e-014
lfoot -16.3083 7.9434 18.0662
ltoes -9.93923e-014 -1.03368e-014 2.42517e-014
1556
root -10.5365 3.8288 -0.209619 272.676 73.5758 87.3755
lowerback -22.8309 -1.04164 -5.56369
upperback -6.32019 0.268514 1.38835
thorax 5.75839 0.308687 4.79111
lowerneck 14.6068 -2.65003 0.786391
upperneck 6.09926 -3.01912 -2.29718
head -0.555246 -1.30029 -0.708315
rshoulderjoint -2.53102 7.62376 -29.4275
rhumerus 346.338 -9.54855 -411.357
rradius 24.4907 -1.22253e-014 -1.44715e-013
rwrist 1.25365e-012 4.40058 -3.46111e-013
rhand 4.45125 -3.65033 32.9423
lshoulderjoint -1.68667 -4.94871 29.8475
lhumerus 355.933 10.1449 416.689
lradius 17.6177 6.83819e-014 2.22639e-014
lwrist 1.32138e-012 -9.29622 2.1835e-013
lhand 8.53794 7.71821 -34.1265
rfemur -20.4801 33.9236 1.17444
rtibia 7.60394 -6.36111e-015 1.59028e-014
rfoot -187.089 -68.1966 197.189
rtoes -3.49861e-014 -8.90555e-014 -1.59028e-015
lfemur -19.8138 -17.842 -9.24563
ltibia 26.09 -6.36111e-015 -6.36111e-015
lfoot -16.2824 7.8697 18.5685
ltoes 7.15625e-014 -2.89729e-014 -1.78906e-014
1557
root -10.5382 3.82895 -0.215718 274.966 73.5504 85.1412
lowerback -22.7973 -0.889025 -5.41212
upperback -6.33033 0.438265 1.24298
thorax 5.71337 0.392082 4.58925
lowerneck 14.5816 -2.78456 1.36135
upperneck 6.08831 -3.11347 -2.50043
head -0.572424 -1.33448 -0.865078
rshoulderjoint -2.35427 7.22944 -29.0922
rhumerus 346.469 -9.46954 -411.357
rradius 24.4374 1.19271e-015 1.03368e-013
rwrist -2.1695e-013 4.51059 2.13759e-013
rhand 4.45047 -3.76889 32.9715
lshoulderjoint -1.83565 -5.28365 30.1896
lhumerus 355.93 9.8201 416.842
lradius 17.6003 6.67916e-014 -4.37326e-015
lwrist -2.48111e-013 -9.22455 -8.70001e-014
lhand 8.51322 7.71003 -34.0001
rfemur -20.6522 34.1215 0.927456
rtibia 7.6038 7.63333e-014 -8.34896e-015
rfoot -187.247 -68.2054 197.683
rtoes -2.51264e-013 5.24792e-014 -1.38354e-013
lfemur -19.4803 -17.603 -9.46378
ltibia 25.5697 -2.54444e-014 -1.11319e-014
lfoot -16.2373 7.93346 19.0775
ltoes -2.22639e-014 6.1822e-014 2.80286e-014
1558
root -10.5395 3.82899 -0.222122 277.208 73.5227 82.9943
lowerback -22.778 -0.749325 -5.28516
upperback -6.31896 0.597145 1.09011
thorax 5.70179 0.46775 4.39114
lowerneck 14.5436 -2.90726 1.89297
upperneck 6.07139 -3.2 -2.68095
head -0.588967 -1.36635 -1.0087
rshoulderjoint -2.18871 6.86015 -28.7429
rhumerus 346.627 -9.42665 -411.324
rradius 24.3761 -2.54444e-014 2.14687e-014
rwrist 6.63675e-013 4.58047 1.03699e-014
rhand 4.53077 -3.7993 32.9854
lshoulderjoint -1.98228 -5.60985 30.4972
lhumerus 355.947 9.63084 416.969
lradius 17.5508 6.99722e-014 1.98785e-014
lwrist 6.95876e-013 -9.16135 1.14771e-013
lhand 8.57762 7.65929 -33.7354
rfemur -20.7994 34.3008 0.668813
rtibia 7.64241 4.77083e-014 -1.11319e-014
rfoot -187.161 -67.6748 197.929
rtoes -4.45278e-014 -1.35174e-013 -5.24792e-014
lfemur -19.0936 -17.3688 -9.73888
ltibia 24.9969 -1.90833e-014 3.18055e-015
lfoot -16.1465 7.79614 19.6093
ltoes -9.62118e-014 3.00662e-014 7.07673e-014
1559
root -10.5403 3.82949 -0.227545 278.847 73.5735 81.4423
lowerback -22.7348 -0.957873 -5.30388
upperback -6.28887 0.302662 1.33622
thorax 5.74261 0.31966 4.59144
lowerneck 14.6525 -2.66027 1.34417
upperneck 6.01034 -2.95724 -2.70058
head -0.610859 -1.255 -0.932449
rshoulderjoint -2.40071 7.35929 -29.1236
rhumerus 346.609 -9.50458 -411.355
rradius 24.3001 -2.42517e-014 -3.18055e-014
rwrist 6.82909e-013 4.67291 -9.81282e-014
rhand 4.59881 -3.92053 32.9837
lshoulderjoint -1.83541 -5.29472 30.1502
lhumerus 355.978 9.42385 417.082
lradius 17.4928 2.46493e-014 -2.38542e-015
lwrist 6.95815e-013 -9.12974 8.73795e-014
lhand 8.53914 7.69891 -33.4821
rfemur -20.7564 34.341 0.595239
rtibia 7.69202 2.22639e-014 3.97569e-015
rfoot -186.891 -66.7858 197.986
rtoes -1.08139e-013 -1.1291e-013 -1.09729e-013
lfemur -18.5983 -17.163 -9.99886
ltibia 24.3642 3.18055e-015 2.38542e-015
lfoot -16.0771 7.67957 19.9309
ltoes -1.27222e-014 -7.33018e-015 1.94809e-014
1560
root -10.542 3.82969 -0.233878 280.718 73.4858 79.6451
lowerback -22.7398 -0.988513 -5.23577
upperback -6.28471 0.239591 1.39562
thorax 5.75711 0.287231 4.60025
lowerneck 14.6389 -2.59728 1.3244
upperneck 5.99606 -2.87988 -2.80664
head -0.613751 -1.2162 -0.966622
rshoulderjoint -2.42828 7.40428 -29.2147
rhumerus 346.685 -9.48645 -411.4
rradius 24.2525 -3.53837e-014 1.90833e-014
rwrist 2.99995e-013 4.73249 3.90951e-014
rhand 4.66271 -3.9832 32.9887
lshoulderjoint -1.81121 -5.23006 30.132
lhumerus 356.022 9.22703 417.228
lradius 17.4647 0 5.88403e-014
lwrist 2.99502e-013 -9.02868 1.61425e-013
lhand 8.52855 7.61252 -33.2151
rfemur -20.9909 34.4269 0.371295
rtibia 7.86191 2.54444e-014 -1.86858e-014
rfoot -186.767 -66.7069 198.222
rtoes -5.725e-014 -3.81667e-014 -1.92424e-013
lfemur -18.2211 -16.9778 -10.2054
ltibia 23.6699 -1.27222e-014 2.38542e-015
lfoot -15.9864 7.74372 20.2669
ltoes -1.38354e-013 3.09856e-014 1.51076e-014
1561
root -10.544 3.8299 -0.240404 282.409 73.3937 78.0485
lowerback -22.7438 -1.01102 -5.1852
upperback -6.26894 0.19317 1.42014
thorax 5.78197 0.261897 4.58555
lowerneck 14.594 -2.56223 1.34762
upperneck 5.9853 -2.83391 -2.90307
head -0.611545 -1.19296 -1.00375
rshoulderjoint -2.43093 7.40774 -29.2254
rhumerus 346.767 -9.53536 -411.393
rradius 24.2387 -4.05521e-014 5.80451e-014
rwrist -2.52151e-013 4.80728 1.61185e-013
rhand 4.72312 -4.01698 32.9769
lshoulderjoint -1.79166 -5.16688 30.1542
lhumerus 356.085 9.0098 417.377
lradius 17.4571 -1.66979e-014 -1.07344e-014
lwrist -3.21486e-013 -8.37809 -5.78675e-014
lhand 8.7761 7.0297 -33.02
rfemur -21.2466 34.4619 0.148027
rtibia 8.13321 8.90555e-014 -3.97569e-015
rfoot -186.467 -66.2356 198.27
rtoes -2.83069e-013 -5.40694e-014 -2.00375e-013
lfemur -17.8317 -16.7686 -10.4432
ltibia 22.9185 -3.49861e-014 -7.95139e-016
lfoot -15.8772 7.56836 20.5602
ltoes -7.31528e-014 3.84151e-014 1.18078e-013
1562
root -10.546 3.83021 -0.246888 283.965 73.2873 76.5856
lowerback -22.7631 -1.05596 -5.15962
upperback -6.24941 0.123321 1.45579
thorax 5.82111 0.224583 4.5914
lowerneck 14.5979 -2.51614 1.38237
upperneck 5.9136 -2.77369 -2.99804
head -0.637081 -1.16221 -1.04272
rshoulderjoint -2.4332 7.38865 -29.2851
rhumerus 346.881 -9.47952 -411.431
rradius 24.2269 -5.725e-014 -5.56597e-015
rwrist 9.99044e-013 4.81787 -5.26652e-014
rhand 4.7681 -4.03518 32.9707
lshoulderjoint -1.78832 -5.16248 30.1362
lhumerus 356.144 8.84366 417.482
lradius 17.4334 6.75868e-014 -7.15625e-014
lwrist 9.5909e-013 -8.79784 -2.69543e-014
lhand 8.36021 7.37838 -33.0498
rfemur -21.5233 34.4657 -0.0625059
rtibia 8.44743 5.40694e-014 3.61788e-014
rfoot -186.099 -65.6503 198.274
rtoes -2.73528e-013 -6.04305e-014 6.36111e-015
lfemur -17.4305 -16.5508 -10.6778
ltibia 22.1205 -2.8625e-014 -1.03368e-014
lfoot -15.7645 7.434 20.76
ltoes 1.47101e-013 -4.49253e-014 3.29983e-014
1563
root -10.5484 3.83041 -0.253578 285.329 73.153 75.3503
lowerback -22.7963 -1.10139 -5.16405
upperback -6.22808 0.0625471 1.46803
thorax 5.86825 0.191394 4.59154
lowerneck 14.5414 -2.47964 1.39582
upperneck 5.8554 -2.73091 -3.04919
head -0.647167 -1.14234 -1.06365
rshoulderjoint -2.43758 7.41041 -29.2659
rhumerus 346.976 -9.58079 -411.385
rradius 24.2026 -3.97569e-015 -1.02573e-013
rwrist 3.3837e-013 4.8894 -2.13875e-013
rhand 4.85899 -4.07126 32.9334
lshoulderjoint -1.79863 -5.19707 30.1201
lhumerus 356.211 8.63727 417.555
lradius 17.3938 -6.27166e-014 2.04748e-014
lwrist 3.41085e-013 -8.72394 1.27505e-013
lhand 8.21072 7.34352 -33.1463
rfemur -21.8674 34.411 -0.308952
rtibia 8.85376 -1.27222e-014 1.82882e-014
rfoot -185.699 -65.0756 198.225
rtoes -1.59028e-014 -1.49486e-013 0
lfemur -17.0858 -16.8331 -10.8757
ltibia 21.2959 -3.18055e-015 -4.77083e-015
lfoot -15.5991 7.30982 21.4374
ltoes 9.85972e-014 -3.93594e-014 1.94809e-014
1564
root -10.5508 3.83067 -0.260269 286.581 73.0391 74.252
lowerback -22.8139 -1.16684 -5.22428
upperback -6.20348 -0.0131378 1.48515
thorax 5.91236 0.150481 4.62482
lowerneck 14.4411 -2.45134 1.45636
upperneck 5.85705 -2.68915 -3.15987
head -0.632698 -1.12106 -1.11193
rshoulderjoint -2.44294 7.41341 -29.2966
rhumerus 347.037 -9.61356 -411.354
rradius 24.2187 -4.85035e-014 1.27222e-014
rwrist 2.64978e-013 4.95804 3.831e-014
rhand 4.91838 -4.12125 32.8845
lshoulderjoint -1.78443 -5.15626 30.1189
lhumerus 356.308 8.41448 417.693
lradius 17.3652 4.01762e-015 -9.00495e-014
lwrist 2.69921e-013 -8.19253 -1.43998e-013
lhand 8.31154 6.81952 -33.313
rfemur -22.205 34.3188 -0.554364
rtibia 9.33367 4.77083e-014 3.1408e-014
rfoot -185.295 -64.5623 198.176
rtoes -2.29e-013 -2.68757e-013 -5.08889e-014
lfemur -16.6843 -16.5086 -11.1896
ltibia 20.4202 -2.8625e-014 -6.36111e-015
lfoot -15.458 7.05697 21.5061
ltoes 1.16885e-013 -3.52594e-014 7.95139e-016
